<svg width="250" height="250" viewBox="0 0 250 250" fill="none" xmlns="http://www.w3.org/2000/svg">
<rect width="250" height="250" rx="24" fill="#FFC179"/>
<path d="M152 139.054C152 153.383 139.913 165 125 165C110.087 165 98 153.383 98 139.054C98 119.595 122.751 103.378 122.751 85C128.373 87.7005 137.375 97.2486 137.375 109.865C137.375 115.27 136.249 120.676 136.249 120.676C143 118.514 143 110.946 143 110.946C143 110.946 152 122.838 152 139.054Z" fill="#DD7F11"/>
<path fill-rule="evenodd" clip-rule="evenodd" d="M213.071 198.929C209.166 195.024 202.834 195.024 198.929 198.929C195.024 202.834 195.024 209.166 198.929 213.071C202.834 216.976 209.166 216.976 213.071 213.071C216.976 209.166 216.976 202.834 213.071 198.929ZM211.937 200.063C215.216 203.342 215.216 208.658 211.937 211.937C208.658 215.216 203.342 215.216 200.063 211.937C199.683 211.557 199.347 211.149 199.054 210.72C196.92 207.452 197.287 203.027 200.157 200.157C203.027 197.288 207.45 196.92 210.718 199.053C211.148 199.346 211.556 199.682 211.937 200.063Z" fill="#DD7F11" fill-opacity="0.8"/>
<path fill-rule="evenodd" clip-rule="evenodd" d="M205.341 198.362C203.604 198.511 201.908 199.25 200.579 200.579C199.25 201.908 198.511 203.604 198.362 205.341H203.245C204.402 205.341 205.341 204.402 205.341 203.245V198.362ZM198.344 206.389C198.436 208.219 199.181 210.023 200.579 211.421C201.908 212.75 203.604 213.489 205.341 213.638V208.485C205.341 207.328 204.402 206.389 203.245 206.389H198.344ZM206.389 213.656C208.219 213.564 210.023 212.819 211.421 211.421C212.819 210.023 213.564 208.219 213.656 206.389H208.485C207.328 206.389 206.389 207.328 206.389 208.485V213.656ZM213.638 205.341C213.489 203.604 212.75 201.908 211.421 200.579C210.023 199.181 208.219 198.436 206.389 198.344V203.245C206.389 204.402 207.328 205.341 208.485 205.341H213.638Z" fill="#DD7F11" fill-opacity="0.8"/>
</svg>

