<svg width="172" height="172" viewBox="0 0 172 172" fill="none" xmlns="http://www.w3.org/2000/svg">
<path d="M32.25 154.531C28.4875 154.531 24.9937 152.247 23.5156 148.753C21.5 143.916 23.7844 138.406 28.6219 136.391L136.122 91.5093C137.331 90.9718 138.541 90.8375 139.75 90.8375C143.512 90.8375 147.006 93.1218 148.484 96.6156C149.425 98.9 149.425 101.453 148.484 103.872C147.544 106.156 145.662 108.037 143.378 108.978L35.8781 153.859C34.6687 154.262 33.4594 154.531 32.25 154.531Z" fill="#826774"/>
<path d="M31.4437 135.987C29.1629 135.987 26.9754 136.908 25.3626 138.546C23.7498 140.184 22.8438 142.405 22.8438 144.722C22.8438 147.038 23.7498 149.26 25.3626 150.898C26.9754 152.536 29.1629 153.456 31.4437 153.456C33.7246 153.456 35.9121 152.536 37.5249 150.898C39.1377 149.26 40.0437 147.038 40.0437 144.722C40.0437 142.405 39.1377 140.184 37.5249 138.546C35.9121 136.908 33.7246 135.987 31.4437 135.987Z" fill="#E8D8C4"/>
<path d="M32.25 158.562C26.875 158.562 21.9031 155.337 19.8875 150.366C17.0656 143.512 20.2906 135.584 27.1437 132.762L45.0156 125.372C47.0312 124.566 49.45 125.506 50.2562 127.522C51.0625 129.537 50.1218 131.956 48.1062 132.762L30.2343 140.153C27.5468 141.362 26.2031 144.453 27.4125 147.141C28.2187 149.156 30.2343 150.5 32.3843 150.5C33.0562 150.5 33.7281 150.366 34.4 150.097L70.6812 134.912C72.6968 134.106 75.1156 135.047 75.9218 137.062C76.7281 139.078 75.7875 141.497 73.7718 142.303L37.4906 157.487C35.7437 158.159 33.9968 158.562 32.25 158.562ZM125.641 120.266C124.028 120.266 122.55 119.325 121.878 117.847C121.072 115.831 122.012 113.412 124.028 112.606L141.766 105.216C143.109 104.678 144.184 103.603 144.722 102.259C145.259 100.916 145.259 99.4375 144.722 98.0937C143.916 96.0781 141.9 94.7343 139.75 94.7343C139.078 94.7343 138.272 94.8687 137.734 95.1375L100.781 110.725C98.7656 111.531 96.3468 110.591 95.5406 108.575C94.7343 106.559 95.675 104.141 97.6906 103.334L134.644 87.8812C136.256 87.2093 138.003 86.8062 139.884 86.8062C145.259 86.8062 150.231 90.0312 152.247 95.0031C153.591 98.3625 153.591 101.991 152.247 105.216C150.903 108.575 148.35 111.128 144.991 112.472L127.253 119.862C126.716 120.266 126.178 120.266 125.641 120.266Z" fill="#454B54"/>
<path d="M139.75 154.531C138.541 154.531 137.331 154.263 136.122 153.859L28.6219 108.844C23.7844 106.828 21.6345 101.319 23.5157 96.4813C24.9938 92.9875 28.3532 90.7031 32.2501 90.7031C33.4595 90.7031 34.6688 90.9719 35.8782 91.375L143.378 136.256C145.663 137.197 147.544 139.078 148.484 141.362C149.425 143.647 149.425 146.2 148.484 148.619C147.006 152.247 143.513 154.531 139.75 154.531Z" fill="#AA8F9D"/>
<path d="M140.556 137.062C138.275 137.062 136.088 137.983 134.475 139.621C132.862 141.259 131.956 143.48 131.956 145.797C131.956 148.113 132.862 150.335 134.475 151.973C136.088 153.611 138.275 154.531 140.556 154.531C142.837 154.531 145.025 153.611 146.637 151.973C148.25 150.335 149.156 148.113 149.156 145.797C149.156 143.48 148.25 141.259 146.637 139.621C145.025 137.983 142.837 137.063 140.556 137.062Z" fill="#E8D8C4"/>
<path d="M139.75 158.562C138.003 158.562 136.256 158.159 134.509 157.487L27.0094 112.606C23.65 111.262 21.0969 108.575 19.7532 105.35C18.4094 101.991 18.4094 98.3625 19.7532 95.0031C21.9032 90.0312 26.7407 86.8062 32.1157 86.8062C33.8625 86.8062 35.6094 87.2093 37.3563 87.8812L144.856 132.762C148.216 134.106 150.769 136.794 152.113 140.019C153.456 143.378 153.456 147.006 152.113 150.366C150.097 155.337 145.125 158.562 139.75 158.562ZM32.25 94.8687C30.1 94.8687 28.0844 96.2125 27.2782 98.2281C26.7407 99.5718 26.7407 101.05 27.2782 102.394C27.8157 103.737 28.8907 104.812 30.2344 105.35L137.734 150.231C138.406 150.5 139.078 150.634 139.75 150.634C141.9 150.634 143.916 149.291 144.722 147.275C145.259 145.931 145.259 144.453 144.722 143.109C144.184 141.766 143.109 140.691 141.766 140.153L34.2657 95.2718C33.5938 95.0031 32.9219 94.8687 32.25 94.8687Z" fill="#454B54"/>
<path d="M117.309 83.1781C117.309 83.1781 116.369 80.7594 115.697 79.8188L99.4375 44.3438L92.7188 55.0938L79.2812 30.9062L56.5719 79.1469C55.9 80.3563 55.2281 81.7 54.6906 83.0438C53.2125 86.9406 52.4062 91.1063 52.4062 95.4062C52.4062 113.95 67.4563 129 86 129C104.544 129 119.594 113.95 119.594 95.4062C119.594 91.1063 118.788 86.9406 117.309 83.1781Z" fill="#F8E390"/>
<path d="M86 115.562C69.7406 115.562 56.1688 104.006 53.0781 88.6875C52.675 90.8375 52.4062 93.1219 52.4062 95.4062C52.4062 113.95 67.4563 129 86 129C104.544 129 119.594 113.95 119.594 95.4062C119.594 93.1219 119.325 90.8375 118.922 88.6875C115.831 104.006 102.259 115.562 86 115.562Z" fill="#EE7778"/>
<path d="M86 115.563C76.7281 115.563 69.2031 108.038 69.2031 98.7656C69.2031 96.75 69.6062 94.7344 70.2781 92.7188C70.6812 91.9125 70.95 91.1063 71.2188 90.8375L71.4875 90.3L72.5625 87.8813L78.8781 97.9594L92.5844 73.3688L100.378 89.8969L100.781 90.5688C101.05 91.1063 101.453 91.7782 101.722 92.45C102.528 94.4657 102.931 96.4813 102.931 98.6313C102.797 108.038 95.2719 115.563 86 115.563Z" fill="white"/>
<path d="M86 133.031C65.3062 133.031 48.375 116.1 48.375 95.4063C48.375 90.7032 49.3156 86 51.0625 81.5656C51.6 80.0875 52.2719 78.7438 53.0781 77.4L75.7875 29.2938C76.4594 27.95 77.8031 27.0094 79.2812 27.0094C80.7594 27.0094 82.2375 27.8156 82.9094 29.025L92.9875 47.3L96.0781 42.3281C96.8844 41.1188 98.2281 40.3125 99.7062 40.4469C101.184 40.5813 102.528 41.3875 103.066 42.7313L119.325 77.9375C119.863 78.8782 120.534 80.3563 120.803 81.1625C120.938 81.4313 121.206 81.8344 121.206 82.2375C122.819 86.4031 123.625 90.8375 123.625 95.4063C123.625 116.1 106.694 133.031 86 133.031ZM79.55 39.775L60.2 80.8938C60.2 81.0281 60.0656 81.0282 60.0656 81.1625C59.5281 82.2375 58.9906 83.3125 58.4531 84.5219C57.1094 88.0157 56.4375 91.6438 56.4375 95.4063C56.4375 111.666 69.7406 124.969 86 124.969C102.259 124.969 115.562 111.666 115.562 95.4063C115.562 91.6438 114.891 88.15 113.547 84.6563V84.5219C113.144 83.5813 112.472 82.2375 112.203 81.7C112.203 81.7 112.203 81.5656 112.069 81.5656L98.9 52.9438L96.0781 57.3781C95.4062 58.4531 94.0625 59.125 92.5844 59.125C91.1063 59.125 89.8969 58.3188 89.225 57.1094L79.55 39.775Z" fill="#454B54"/>
</svg>
